# xmcd
#
# Track frame offsets: 
#        150
#        19684
#        41624
#        69048
#        92213
#        117663
#        151112
#        159111
#        187366
#        190349
#
# Disc length: 3063 seconds
#
# Revision: 2
# Processed by: cddbd v1.4PL0 Copyright (c) Steve Scherf et al.
# Submitted via: ExactAudioCopy v0.90b4
#
DISCID=7c0bf50a
DTITLE=Pink Floyd - A Momentary Lapse of Reason
DYEAR=1987
DGENRE=Psychedelic Rock
TTITLE0=Signs of Life
TTITLE1=Learning To Fly
TTITLE2=The Dogs of War
TTITLE3=One Slip
TTITLE4=On The Turning Away
TTITLE5=Yet Another Movie
TTITLE6=A New Machine (Part I)
TTITLE7=Terminal Frost
TTITLE8=A New Machine (Part II)
TTITLE9=Sorrow
EXTD=
EXTT0=
EXTT1=
EXTT2=
EXTT3=
EXTT4=
EXTT5=
EXTT6=
EXTT7=
EXTT8=
EXTT9=
PLAYORDER=
